<svg width="166" height="44" viewBox="0 0 166 44" fill="none" xmlns="http://www.w3.org/2000/svg">
    <rect width="44" height="44" rx="10" fill="#98A3AA"/>
    <path d="M38.1133 22C38.1133 22 30.8991 32.3841 22 32.3841C13.1009 32.3841 5.88672 22 5.88672 22C5.88672 22 13.1009 11.6158 22 11.6158C30.8991 11.6158 38.1133 22 38.1133 22Z" fill="white"/>
    <path fill-rule="evenodd" clip-rule="evenodd" d="M26.3031 27.8031C28.0913 26.4826 29.2511 24.3599 29.2511 21.9663C29.2511 19.5727 28.0913 17.45 26.303 16.1295C29.6461 17.0942 32.6108 19.1574 34.8907 21.9663C32.6108 24.7752 29.6462 26.8383 26.3031 27.8031ZM17.6973 27.8032C14.3541 26.8385 11.3893 24.7753 9.10938 21.9663C11.3893 19.1572 14.3541 17.0941 17.6974 16.1293C15.909 17.4498 14.7492 19.5726 14.7492 21.9663C14.7492 24.3599 15.909 26.4827 17.6973 27.8032Z" fill="#98A3AA"/>
    <path d="M21.9978 27.3778C20.5528 27.3778 19.3771 26.8968 18.4707 25.9347C17.5643 24.9659 17.1111 23.6731 17.1111 22.0562V21.7155C17.1111 20.6398 17.3114 19.6811 17.7121 18.8392C18.1193 17.9907 18.6842 17.3293 19.4067 16.8549C20.1358 16.3739 20.9239 16.1334 21.7712 16.1334C23.1571 16.1334 24.2343 16.5977 25.0028 17.5264C25.7713 18.4551 26.1555 19.7846 26.1555 21.5151V22.2867H18.9338C18.96 23.3557 19.2655 24.2209 19.85 24.8824C20.4412 25.5371 21.19 25.8645 22.0964 25.8645C22.7401 25.8645 23.2852 25.7309 23.7319 25.4636C24.1785 25.1964 24.5693 24.8423 24.9043 24.4013L26.0176 25.2833C25.1243 26.6796 23.7844 27.3778 21.9978 27.3778ZM21.7712 17.6567C21.0356 17.6567 20.4182 17.9306 19.919 18.4785C19.4198 19.0196 19.1111 19.7813 18.9929 20.7634H24.3328V20.6231C24.2803 19.6811 24.0307 18.9528 23.5841 18.4384C23.1374 17.9172 22.5332 17.6567 21.7712 17.6567Z" fill="#98A3AA"/>
    <path d="M56.8911 11.2337H65.5742V13.9343H60.6453V19.9847H64.5271V22.6593H60.6453V29.6445H65.6253V32.2671H56.8911V11.2337Z" fill="#98A3AA"/>
    <path d="M73.3822 32.5528C71.2369 32.5528 69.7132 31.9469 68.8108 30.7351C67.9255 29.506 67.4828 27.7748 67.4828 25.5416V18.0371C67.4828 15.7347 67.9255 13.9862 68.8108 12.7917C69.6961 11.5972 71.2199 11 73.3822 11C75.4082 11 76.8469 11.5193 77.6982 12.558C78.5495 13.5967 78.9751 15.0942 78.9751 17.0504V18.8161H75.3486V16.9984C75.3486 16.254 75.3146 15.6741 75.2465 15.2586C75.1784 14.8258 74.9996 14.4796 74.7102 14.2199C74.4378 13.943 74.0036 13.8045 73.4077 13.8045C72.7948 13.8045 72.3351 13.9516 72.0286 14.2459C71.7222 14.5229 71.5179 14.9037 71.4157 15.3885C71.3306 15.8559 71.288 16.4704 71.288 17.2321V26.3466C71.288 27.5411 71.4413 28.4067 71.7477 28.9433C72.0542 29.4627 72.6075 29.7224 73.4077 29.7224C73.9866 29.7224 74.4122 29.5839 74.6846 29.3069C74.9741 29.0299 75.1528 28.6664 75.2209 28.2163C75.3061 27.7489 75.3486 27.1343 75.3486 26.3726V24.477H78.9751V26.1649C78.9751 28.1903 78.558 29.7656 77.7237 30.8909C76.8895 31.9988 75.4423 32.5528 73.3822 32.5528Z" fill="#98A3AA"/>
    <path d="M83.6752 14.0641H80.3807V11.2337H90.6727V14.0641H87.4549V32.2671H83.6752V14.0641Z" fill="#98A3AA"/>
    <path d="M97.7948 11.2337H101.115L103.847 26.1129L106.427 11.2337H109.823L105.661 32.2671H101.958L97.7948 11.2337Z" fill="#98A3AA"/>
    <path d="M112.036 11.2337H115.764V32.2671H112.036V11.2337Z" fill="#98A3AA"/>
    <path d="M124.176 32.5528C122.304 32.5528 120.899 32.0161 119.963 30.9428C119.043 29.8695 118.541 28.2682 118.456 26.1389L121.699 25.4897C121.75 26.8227 121.955 27.8441 122.312 28.5538C122.687 29.2463 123.266 29.5925 124.049 29.5925C124.628 29.5925 125.053 29.4194 125.326 29.0732C125.615 28.7096 125.76 28.2249 125.76 27.619C125.76 26.7881 125.572 26.087 125.198 25.5157C124.84 24.9271 124.27 24.2866 123.487 23.5941L120.882 21.283C120.082 20.5906 119.477 19.8462 119.069 19.0498C118.677 18.2535 118.481 17.3014 118.481 16.1934C118.481 14.5489 118.95 13.2765 119.886 12.3763C120.839 11.4588 122.15 11 123.819 11C125.607 11 126.883 11.5193 127.65 12.558C128.433 13.5794 128.884 14.9643 129.003 16.7128L125.76 17.2841C125.709 16.1415 125.547 15.2846 125.275 14.7133C125.019 14.1247 124.508 13.8304 123.742 13.8304C123.197 13.8304 122.772 14.0209 122.465 14.4017C122.159 14.7652 122.006 15.2327 122.006 15.8039C122.006 16.4791 122.133 17.0504 122.389 17.5178C122.661 17.9679 123.095 18.4526 123.691 18.9719L126.271 21.283C127.241 22.1313 127.999 23.0401 128.543 24.0096C129.088 24.979 129.361 26.1043 129.361 27.3853C129.361 28.3894 129.139 29.2809 128.697 30.0599C128.271 30.839 127.667 31.4535 126.883 31.9036C126.1 32.3364 125.198 32.5528 124.176 32.5528Z" fill="#98A3AA"/>
    <path d="M131.688 11.2337H135.417V32.2671H131.688V11.2337Z" fill="#98A3AA"/>
    <path d="M144.263 32.5528C142.118 32.5528 140.586 31.9729 139.666 30.813C138.747 29.6358 138.287 27.922 138.287 25.6715V17.7774C138.287 15.5443 138.747 13.8564 139.666 12.7138C140.586 11.5713 142.118 11 144.263 11C146.391 11 147.915 11.5713 148.835 12.7138C149.754 13.8564 150.214 15.5443 150.214 17.7774V25.6715C150.214 27.9047 149.745 29.6098 148.809 30.787C147.89 31.9642 146.374 32.5528 144.263 32.5528ZM144.263 29.7224C145.097 29.7224 145.659 29.454 145.949 28.9174C146.238 28.3807 146.383 27.6017 146.383 26.5803V16.8946C146.383 15.8732 146.238 15.1028 145.949 14.5835C145.676 14.0641 145.114 13.8045 144.263 13.8045C143.412 13.8045 142.842 14.0728 142.552 14.6094C142.263 15.1288 142.118 15.8905 142.118 16.8946V26.5803C142.118 27.6017 142.263 28.3807 142.552 28.9174C142.842 29.454 143.412 29.7224 144.263 29.7224Z" fill="#98A3AA"/>
    <path d="M153.01 11.2337H155.64L160.671 23.2306V11.2337H163.787V32.2671H161.284L156.227 19.699V32.2671H153.01V11.2337Z" fill="#98A3AA"/>
</svg>
